<?xml version="1.0" encoding="UTF-8"?>
<svg xmlns="http://www.w3.org/2000/svg" version="1.1" width="200" height="200" viewBox="0 0 200 200"><rect x="0" y="0" width="200" height="200" fill="#ffffff"/><g transform="scale(5.405)"><g transform="translate(0,0)"><path fill-rule="evenodd" d="M8 0L8 1L9 1L9 2L8 2L8 3L9 3L9 4L8 4L8 5L9 5L9 6L8 6L8 8L9 8L9 6L10 6L10 10L9 10L9 9L8 9L8 10L6 10L6 11L7 11L7 12L5 12L5 13L3 13L3 15L0 15L0 17L1 17L1 18L0 18L0 19L3 19L3 20L2 20L2 22L1 22L1 21L0 21L0 22L1 22L1 24L0 24L0 29L1 29L1 26L2 26L2 29L5 29L5 28L3 28L3 26L4 26L4 27L8 27L8 30L9 30L9 31L8 31L8 32L9 32L9 34L10 34L10 35L11 35L11 37L13 37L13 36L14 36L14 37L15 37L15 36L17 36L17 33L16 33L16 32L18 32L18 31L19 31L19 33L18 33L18 34L19 34L19 33L20 33L20 31L21 31L21 32L22 32L22 33L23 33L23 31L24 31L24 33L25 33L25 34L22 34L22 35L20 35L20 37L22 37L22 36L24 36L24 35L26 35L26 37L27 37L27 36L28 36L28 37L29 37L29 36L30 36L30 35L27 35L27 33L28 33L28 34L31 34L31 35L32 35L32 33L33 33L33 32L34 32L34 34L35 34L35 32L36 32L36 33L37 33L37 30L36 30L36 27L37 27L37 26L35 26L35 27L34 27L34 26L33 26L33 27L32 27L32 28L31 28L31 25L33 25L33 24L34 24L34 23L35 23L35 22L36 22L36 24L35 24L35 25L37 25L37 22L36 22L36 21L37 21L37 18L36 18L36 17L37 17L37 16L36 16L36 15L37 15L37 14L34 14L34 13L33 13L33 14L32 14L32 12L33 12L33 11L34 11L34 10L35 10L35 8L34 8L34 10L32 10L32 9L33 9L33 8L32 8L32 9L31 9L31 8L30 8L30 10L29 10L29 6L28 6L28 7L27 7L27 4L28 4L28 5L29 5L29 3L28 3L28 2L26 2L26 1L27 1L27 0L25 0L25 1L24 1L24 2L26 2L26 3L25 3L25 4L24 4L24 3L23 3L23 2L21 2L21 0L18 0L18 1L17 1L17 0L16 0L16 1L17 1L17 2L16 2L16 4L15 4L15 5L14 5L14 7L13 7L13 6L12 6L12 7L11 7L11 5L13 5L13 4L14 4L14 3L15 3L15 2L14 2L14 1L15 1L15 0L12 0L12 4L11 4L11 3L9 3L9 2L10 2L10 1L9 1L9 0ZM22 0L22 1L23 1L23 0ZM28 0L28 1L29 1L29 0ZM18 1L18 2L17 2L17 5L20 5L20 6L19 6L19 7L20 7L20 8L21 8L21 10L20 10L20 12L21 12L21 13L22 13L22 15L23 15L23 14L24 14L24 13L27 13L27 12L29 12L29 14L30 14L30 15L31 15L31 17L29 17L29 15L27 15L27 16L28 16L28 17L29 17L29 19L30 19L30 20L31 20L31 21L29 21L29 20L28 20L28 19L27 19L27 17L24 17L24 16L26 16L26 15L24 15L24 16L23 16L23 17L24 17L24 18L23 18L23 19L21 19L21 18L22 18L22 17L21 17L21 18L20 18L20 15L21 15L21 14L20 14L20 13L16 13L16 12L15 12L15 13L14 13L14 11L17 11L17 12L18 12L18 11L19 11L19 10L18 10L18 11L17 11L17 9L16 9L16 8L17 8L17 7L18 7L18 6L17 6L17 7L16 7L16 5L15 5L15 8L14 8L14 11L13 11L13 10L12 10L12 11L13 11L13 13L14 13L14 14L12 14L12 13L11 13L11 12L10 12L10 13L11 13L11 14L12 14L12 15L14 15L14 14L15 14L15 15L16 15L16 16L13 16L13 17L14 17L14 22L16 22L16 23L17 23L17 22L18 22L18 24L17 24L17 25L15 25L15 23L13 23L13 22L12 22L12 21L13 21L13 20L12 20L12 21L11 21L11 24L12 24L12 23L13 23L13 24L14 24L14 25L11 25L11 27L10 27L10 24L8 24L8 23L6 23L6 24L7 24L7 25L5 25L5 22L4 22L4 20L7 20L7 19L8 19L8 20L10 20L10 19L11 19L11 18L12 18L12 16L11 16L11 15L10 15L10 16L9 16L9 10L8 10L8 13L6 13L6 14L8 14L8 15L3 15L3 16L1 16L1 17L2 17L2 18L3 18L3 19L4 19L4 20L3 20L3 22L4 22L4 23L3 23L3 25L4 25L4 26L8 26L8 27L10 27L10 29L9 29L9 30L10 30L10 34L11 34L11 35L13 35L13 34L14 34L14 35L16 35L16 34L14 34L14 33L15 33L15 32L14 32L14 31L15 31L15 30L17 30L17 31L18 31L18 30L17 30L17 28L19 28L19 29L21 29L21 30L22 30L22 29L25 29L25 30L24 30L24 31L25 31L25 32L26 32L26 30L27 30L27 31L28 31L28 30L27 30L27 29L28 29L28 28L30 28L30 27L29 27L29 26L28 26L28 25L27 25L27 26L26 26L26 25L25 25L25 24L26 24L26 23L27 23L27 24L29 24L29 23L30 23L30 22L32 22L32 20L31 20L31 17L32 17L32 18L33 18L33 17L34 17L34 18L35 18L35 19L34 19L34 20L36 20L36 18L35 18L35 17L36 17L36 16L35 16L35 17L34 17L34 16L33 16L33 17L32 17L32 14L31 14L31 13L30 13L30 12L31 12L31 11L32 11L32 10L30 10L30 11L27 11L27 10L28 10L28 8L27 8L27 7L26 7L26 6L25 6L25 5L24 5L24 4L23 4L23 3L22 3L22 4L23 4L23 5L20 5L20 4L21 4L21 2L20 2L20 1ZM18 2L18 3L19 3L19 4L20 4L20 2ZM26 3L26 4L27 4L27 3ZM10 4L10 5L11 5L11 4ZM20 6L20 7L21 7L21 8L22 8L22 7L23 7L23 6L22 6L22 7L21 7L21 6ZM24 6L24 7L25 7L25 8L26 8L26 9L23 9L23 10L21 10L21 11L22 11L22 12L23 12L23 13L24 13L24 11L25 11L25 10L27 10L27 8L26 8L26 7L25 7L25 6ZM5 8L5 9L7 9L7 8ZM12 8L12 9L13 9L13 8ZM36 8L36 9L37 9L37 8ZM0 9L0 13L1 13L1 14L2 14L2 13L1 13L1 11L3 11L3 12L4 12L4 11L5 11L5 10L4 10L4 9L3 9L3 10L1 10L1 9ZM15 9L15 10L16 10L16 9ZM10 10L10 11L11 11L11 10ZM36 10L36 11L35 11L35 12L37 12L37 10ZM26 11L26 12L27 12L27 11ZM16 14L16 15L17 15L17 14ZM19 14L19 15L18 15L18 16L17 16L17 18L16 18L16 21L17 21L17 18L18 18L18 19L19 19L19 18L18 18L18 17L19 17L19 15L20 15L20 14ZM33 14L33 15L34 15L34 14ZM4 16L4 17L3 17L3 18L4 18L4 17L5 17L5 19L7 19L7 18L8 18L8 19L9 19L9 17L8 17L8 16L6 16L6 17L5 17L5 16ZM10 16L10 17L11 17L11 16ZM6 17L6 18L7 18L7 17ZM25 18L25 19L26 19L26 18ZM20 19L20 20L21 20L21 19ZM18 20L18 22L20 22L20 23L19 23L19 24L20 24L20 25L21 25L21 24L22 24L22 26L21 26L21 27L20 27L20 26L19 26L19 25L17 25L17 26L15 26L15 25L14 25L14 27L15 27L15 29L16 29L16 28L17 28L17 27L19 27L19 28L22 28L22 27L23 27L23 23L21 23L21 22L25 22L25 21L26 21L26 22L27 22L27 23L29 23L29 22L28 22L28 20L27 20L27 21L26 21L26 20L25 20L25 21L23 21L23 20L22 20L22 21L21 21L21 22L20 22L20 21L19 21L19 20ZM6 21L6 22L7 22L7 21ZM9 21L9 23L10 23L10 21ZM34 21L34 22L33 22L33 23L32 23L32 24L33 24L33 23L34 23L34 22L35 22L35 21ZM24 23L24 24L25 24L25 23ZM24 25L24 26L25 26L25 27L24 27L24 28L25 28L25 29L27 29L27 28L28 28L28 27L26 27L26 26L25 26L25 25ZM12 27L12 28L11 28L11 29L12 29L12 30L11 30L11 32L12 32L12 33L11 33L11 34L12 34L12 33L14 33L14 32L12 32L12 30L14 30L14 29L12 29L12 28L13 28L13 27ZM25 27L25 28L26 28L26 27ZM33 27L33 29L34 29L34 30L33 30L33 31L34 31L34 32L35 32L35 31L36 31L36 30L35 30L35 29L34 29L34 27ZM6 28L6 29L7 29L7 28ZM29 29L29 32L32 32L32 29ZM30 30L30 31L31 31L31 30ZM36 34L36 37L37 37L37 34ZM18 35L18 36L19 36L19 35ZM33 35L33 36L31 36L31 37L34 37L34 35ZM0 0L0 7L7 7L7 0ZM1 1L1 6L6 6L6 1ZM2 2L2 5L5 5L5 2ZM30 0L30 7L37 7L37 0ZM31 1L31 6L36 6L36 1ZM32 2L32 5L35 5L35 2ZM0 30L0 37L7 37L7 30ZM1 31L1 36L6 36L6 31ZM2 32L2 35L5 35L5 32Z" fill="#000000"/></g></g></svg>
