<?xml version="1.0" encoding="UTF-8"?>
<svg xmlns="http://www.w3.org/2000/svg" version="1.1" width="200" height="200" viewBox="0 0 200 200"><rect x="0" y="0" width="200" height="200" fill="#ffffff"/><g transform="scale(5.405)"><g transform="translate(0,0)"><path fill-rule="evenodd" d="M8 0L8 3L9 3L9 0ZM10 0L10 1L11 1L11 0ZM17 0L17 2L16 2L16 1L15 1L15 2L14 2L14 1L13 1L13 2L11 2L11 5L10 5L10 4L9 4L9 5L8 5L8 9L9 9L9 11L10 11L10 12L8 12L8 10L6 10L6 11L7 11L7 12L6 12L6 13L5 13L5 12L4 12L4 11L5 11L5 8L2 8L2 9L0 9L0 13L1 13L1 14L2 14L2 13L3 13L3 12L4 12L4 14L3 14L3 16L4 16L4 15L8 15L8 16L6 16L6 17L5 17L5 18L4 18L4 19L5 19L5 18L6 18L6 19L8 19L8 21L7 21L7 20L4 20L4 21L3 21L3 20L2 20L2 21L3 21L3 22L2 22L2 23L1 23L1 25L0 25L0 29L1 29L1 26L2 26L2 27L3 27L3 29L5 29L5 27L8 27L8 26L4 26L4 27L3 27L3 25L5 25L5 24L6 24L6 25L9 25L9 26L10 26L10 28L8 28L8 30L9 30L9 31L10 31L10 33L11 33L11 34L10 34L10 35L9 35L9 32L8 32L8 35L9 35L9 36L10 36L10 37L11 37L11 36L12 36L12 37L14 37L14 36L15 36L15 35L14 35L14 34L13 34L13 35L11 35L11 34L12 34L12 33L11 33L11 32L12 32L12 31L10 31L10 28L11 28L11 29L12 29L12 30L13 30L13 31L14 31L14 32L13 32L13 33L14 33L14 32L15 32L15 33L16 33L16 32L17 32L17 33L18 33L18 34L20 34L20 33L21 33L21 34L22 34L22 36L21 36L21 37L24 37L24 35L26 35L26 36L25 36L25 37L26 37L26 36L27 36L27 34L28 34L28 33L29 33L29 34L31 34L31 35L32 35L32 34L34 34L34 33L35 33L35 32L36 32L36 33L37 33L37 30L36 30L36 27L37 27L37 26L35 26L35 28L34 28L34 25L35 25L35 24L34 24L34 25L33 25L33 28L31 28L31 27L32 27L32 26L31 26L31 24L32 24L32 23L33 23L33 22L30 22L30 23L29 23L29 21L31 21L31 20L32 20L32 21L34 21L34 23L35 23L35 22L36 22L36 25L37 25L37 22L36 22L36 21L37 21L37 18L36 18L36 17L37 17L37 16L36 16L36 15L37 15L37 14L34 14L34 15L35 15L35 16L34 16L34 17L35 17L35 19L36 19L36 20L33 20L33 19L34 19L34 18L33 18L33 19L31 19L31 20L30 20L30 18L29 18L29 17L31 17L31 18L32 18L32 17L33 17L33 16L32 16L32 17L31 17L31 15L30 15L30 14L29 14L29 13L31 13L31 14L32 14L32 15L33 15L33 14L32 14L32 13L33 13L33 12L34 12L34 13L36 13L36 12L37 12L37 10L36 10L36 11L35 11L35 12L34 12L34 9L37 9L37 8L34 8L34 9L32 9L32 8L29 8L29 6L28 6L28 5L29 5L29 4L28 4L28 5L27 5L27 3L28 3L28 1L27 1L27 2L26 2L26 1L24 1L24 0L23 0L23 1L24 1L24 2L26 2L26 3L25 3L25 4L24 4L24 3L23 3L23 2L22 2L22 1L21 1L21 3L20 3L20 2L18 2L18 0ZM15 2L15 3L16 3L16 4L17 4L17 5L20 5L20 6L19 6L19 7L20 7L20 8L21 8L21 9L20 9L20 12L19 12L19 13L18 13L18 11L19 11L19 10L18 10L18 11L17 11L17 10L14 10L14 11L13 11L13 10L12 10L12 11L13 11L13 12L14 12L14 14L12 14L12 12L11 12L11 14L12 14L12 15L14 15L14 16L11 16L11 15L9 15L9 14L10 14L10 13L8 13L8 12L7 12L7 13L6 13L6 14L8 14L8 15L9 15L9 16L8 16L8 17L9 17L9 16L10 16L10 17L12 17L12 21L10 21L10 22L9 22L9 21L8 21L8 22L9 22L9 25L11 25L11 28L12 28L12 29L14 29L14 30L15 30L15 29L16 29L16 31L15 31L15 32L16 32L16 31L17 31L17 30L18 30L18 33L19 33L19 31L20 31L20 32L21 32L21 33L22 33L22 31L23 31L23 34L25 34L25 33L24 33L24 31L25 31L25 32L26 32L26 31L27 31L27 32L28 32L28 27L29 27L29 28L30 28L30 27L29 27L29 26L26 26L26 25L27 25L27 24L26 24L26 23L27 23L27 22L28 22L28 21L29 21L29 20L28 20L28 21L27 21L27 19L26 19L26 18L28 18L28 19L29 19L29 18L28 18L28 17L29 17L29 16L28 16L28 17L24 17L24 16L27 16L27 15L24 15L24 16L23 16L23 14L24 14L24 13L25 13L25 12L26 12L26 11L27 11L27 9L28 9L28 10L30 10L30 11L28 11L28 13L27 13L27 14L28 14L28 13L29 13L29 12L31 12L31 13L32 13L32 12L31 12L31 11L32 11L32 10L30 10L30 9L28 9L28 6L27 6L27 7L26 7L26 6L25 6L25 5L24 5L24 4L23 4L23 5L22 5L22 3L21 3L21 5L20 5L20 4L19 4L19 3L18 3L18 2L17 2L17 3L16 3L16 2ZM13 4L13 5L11 5L11 7L12 7L12 6L13 6L13 7L14 7L14 5L15 5L15 4ZM9 5L9 7L10 7L10 5ZM21 5L21 6L20 6L20 7L21 7L21 8L22 8L22 7L23 7L23 6L22 6L22 5ZM15 6L15 7L16 7L16 8L12 8L12 9L17 9L17 7L18 7L18 6L17 6L17 7L16 7L16 6ZM21 6L21 7L22 7L22 6ZM24 6L24 7L25 7L25 8L24 8L24 9L21 9L21 12L22 12L22 13L23 13L23 10L24 10L24 11L25 11L25 10L26 10L26 9L27 9L27 8L26 8L26 7L25 7L25 6ZM6 8L6 9L7 9L7 8ZM9 8L9 9L10 9L10 11L11 11L11 9L10 9L10 8ZM25 8L25 9L24 9L24 10L25 10L25 9L26 9L26 8ZM3 9L3 10L2 10L2 11L1 11L1 12L3 12L3 10L4 10L4 9ZM14 11L14 12L15 12L15 14L14 14L14 15L15 15L15 14L16 14L16 16L17 16L17 19L15 19L15 18L16 18L16 17L15 17L15 18L14 18L14 17L13 17L13 18L14 18L14 19L13 19L13 21L12 21L12 22L13 22L13 23L12 23L12 25L14 25L14 28L17 28L17 29L18 29L18 30L21 30L21 31L22 31L22 30L25 30L25 31L26 31L26 30L25 30L25 29L27 29L27 28L25 28L25 27L26 27L26 26L25 26L25 25L24 25L24 24L25 24L25 23L24 23L24 24L23 24L23 23L22 23L22 25L21 25L21 27L22 27L22 28L23 28L23 26L22 26L22 25L24 25L24 26L25 26L25 27L24 27L24 28L25 28L25 29L19 29L19 28L20 28L20 26L19 26L19 25L20 25L20 24L21 24L21 22L22 22L22 21L23 21L23 22L25 22L25 21L26 21L26 20L25 20L25 21L23 21L23 20L22 20L22 18L23 18L23 19L24 19L24 17L23 17L23 16L20 16L20 17L21 17L21 19L20 19L20 20L18 20L18 22L17 22L17 19L19 19L19 18L18 18L18 17L19 17L19 16L18 16L18 15L20 15L20 14L21 14L21 15L22 15L22 14L21 14L21 13L20 13L20 14L18 14L18 13L17 13L17 14L16 14L16 12L17 12L17 11L16 11L16 12L15 12L15 11ZM17 14L17 15L18 15L18 14ZM0 15L0 17L1 17L1 18L0 18L0 19L1 19L1 18L2 18L2 17L1 17L1 16L2 16L2 15ZM35 16L35 17L36 17L36 16ZM6 17L6 18L7 18L7 17ZM9 18L9 19L10 19L10 18ZM14 19L14 21L13 21L13 22L14 22L14 23L15 23L15 24L14 24L14 25L15 25L15 26L17 26L17 25L15 25L15 24L16 24L16 23L17 23L17 22L16 22L16 23L15 23L15 22L14 22L14 21L16 21L16 20L15 20L15 19ZM20 20L20 21L22 21L22 20ZM0 21L0 22L1 22L1 21ZM4 21L4 24L5 24L5 21ZM6 21L6 22L7 22L7 21ZM10 22L10 24L11 24L11 22ZM18 22L18 25L19 25L19 23L20 23L20 22ZM6 23L6 24L8 24L8 23ZM28 23L28 25L30 25L30 24L29 24L29 23ZM2 24L2 25L3 25L3 24ZM12 27L12 28L13 28L13 27ZM17 27L17 28L19 28L19 27ZM6 28L6 29L7 29L7 28ZM33 28L33 33L34 33L34 32L35 32L35 31L34 31L34 30L35 30L35 29L34 29L34 28ZM29 29L29 32L32 32L32 29ZM30 30L30 31L31 31L31 30ZM26 33L26 34L27 34L27 33ZM16 34L16 37L18 37L18 36L19 36L19 35L18 35L18 36L17 36L17 34ZM36 34L36 36L33 36L33 37L37 37L37 34ZM10 35L10 36L11 36L11 35ZM28 35L28 36L29 36L29 37L30 37L30 35ZM0 0L0 7L7 7L7 0ZM1 1L1 6L6 6L6 1ZM2 2L2 5L5 5L5 2ZM30 0L30 7L37 7L37 0ZM31 1L31 6L36 6L36 1ZM32 2L32 5L35 5L35 2ZM0 30L0 37L7 37L7 30ZM1 31L1 36L6 36L6 31ZM2 32L2 35L5 35L5 32Z" fill="#000000"/></g></g></svg>
