<?xml version="1.0" encoding="UTF-8"?>
<svg xmlns="http://www.w3.org/2000/svg" version="1.1" width="200" height="200" viewBox="0 0 200 200"><rect x="0" y="0" width="200" height="200" fill="#ffffff"/><g transform="scale(5.405)"><g transform="translate(0,0)"><path fill-rule="evenodd" d="M10 0L10 1L9 1L9 2L8 2L8 4L9 4L9 6L8 6L8 7L9 7L9 6L10 6L10 8L11 8L11 9L10 9L10 10L9 10L9 9L8 9L8 8L6 8L6 9L8 9L8 10L4 10L4 9L5 9L5 8L3 8L3 9L2 9L2 10L1 10L1 9L0 9L0 13L1 13L1 11L2 11L2 10L3 10L3 12L2 12L2 14L1 14L1 15L0 15L0 17L1 17L1 18L0 18L0 19L1 19L1 21L0 21L0 23L2 23L2 25L3 25L3 23L4 23L4 24L5 24L5 25L7 25L7 26L5 26L5 27L7 27L7 26L9 26L9 25L7 25L7 24L5 24L5 23L4 23L4 22L6 22L6 23L8 23L8 24L10 24L10 26L11 26L11 25L13 25L13 27L12 27L12 28L13 28L13 27L15 27L15 28L14 28L14 29L10 29L10 27L8 27L8 28L9 28L9 29L8 29L8 31L9 31L9 29L10 29L10 33L9 33L9 32L8 32L8 34L10 34L10 36L11 36L11 37L13 37L13 36L14 36L14 37L15 37L15 36L16 36L16 35L17 35L17 36L19 36L19 37L22 37L22 35L23 35L23 34L22 34L22 35L20 35L20 34L21 34L21 33L20 33L20 34L19 34L19 35L18 35L18 34L17 34L17 33L19 33L19 32L17 32L17 31L20 31L20 32L23 32L23 31L24 31L24 33L25 33L25 34L24 34L24 35L26 35L26 37L27 37L27 36L28 36L28 37L29 37L29 36L28 36L28 35L26 35L26 34L27 34L27 33L28 33L28 34L29 34L29 35L30 35L30 34L31 34L31 35L33 35L33 36L31 36L31 37L34 37L34 36L36 36L36 37L37 37L37 34L35 34L35 33L34 33L34 34L35 34L35 35L33 35L33 34L32 34L32 33L33 33L33 32L34 32L34 31L33 31L33 30L35 30L35 28L36 28L36 27L37 27L37 26L34 26L34 29L33 29L33 27L32 27L32 26L33 26L33 24L35 24L35 25L37 25L37 22L36 22L36 21L37 21L37 18L36 18L36 20L35 20L35 22L34 22L34 19L35 19L35 17L37 17L37 16L36 16L36 15L37 15L37 14L35 14L35 15L33 15L33 14L34 14L34 13L32 13L32 12L33 12L33 11L34 11L34 12L35 12L35 11L36 11L36 12L37 12L37 10L35 10L35 8L33 8L33 9L34 9L34 10L33 10L33 11L31 11L31 12L30 12L30 11L29 11L29 9L28 9L28 10L27 10L27 8L29 8L29 2L27 2L27 0L25 0L25 1L24 1L24 2L25 2L25 4L24 4L24 3L23 3L23 4L22 4L22 2L20 2L20 1L21 1L21 0L20 0L20 1L19 1L19 2L18 2L18 1L17 1L17 0L16 0L16 1L17 1L17 2L18 2L18 3L19 3L19 2L20 2L20 3L21 3L21 4L22 4L22 5L23 5L23 6L22 6L22 7L21 7L21 6L20 6L20 5L18 5L18 4L17 4L17 3L16 3L16 4L14 4L14 3L15 3L15 0L13 0L13 1L12 1L12 0ZM22 0L22 1L23 1L23 0ZM28 0L28 1L29 1L29 0ZM10 1L10 2L9 2L9 3L10 3L10 2L11 2L11 1ZM13 1L13 2L12 2L12 3L14 3L14 1ZM25 1L25 2L26 2L26 1ZM26 3L26 5L27 5L27 7L28 7L28 4L27 4L27 3ZM10 4L10 6L11 6L11 7L12 7L12 6L13 6L13 8L12 8L12 9L14 9L14 6L15 6L15 10L16 10L16 9L17 9L17 7L18 7L18 5L14 5L14 6L13 6L13 5L12 5L12 4ZM11 5L11 6L12 6L12 5ZM24 5L24 6L23 6L23 9L21 9L21 10L23 10L23 11L20 11L20 12L21 12L21 13L20 13L20 14L19 14L19 13L15 13L15 15L16 15L16 16L15 16L15 17L14 17L14 16L13 16L13 17L14 17L14 19L13 19L13 18L10 18L10 17L11 17L11 16L9 16L9 14L7 14L7 13L6 13L6 14L7 14L7 15L5 15L5 16L4 16L4 15L3 15L3 14L2 14L2 15L3 15L3 17L2 17L2 16L1 16L1 17L2 17L2 18L3 18L3 19L4 19L4 20L3 20L3 22L2 22L2 21L1 21L1 22L2 22L2 23L3 23L3 22L4 22L4 21L5 21L5 20L7 20L7 21L6 21L6 22L7 22L7 21L8 21L8 20L10 20L10 21L9 21L9 22L8 22L8 23L10 23L10 24L11 24L11 23L10 23L10 21L11 21L11 22L12 22L12 23L13 23L13 22L12 22L12 21L14 21L14 22L16 22L16 25L15 25L15 24L13 24L13 25L14 25L14 26L16 26L16 25L20 25L20 24L19 24L19 23L21 23L21 22L22 22L22 23L23 23L23 22L22 22L22 21L25 21L25 22L24 22L24 23L25 23L25 24L23 24L23 25L21 25L21 26L19 26L19 27L17 27L17 28L15 28L15 29L14 29L14 30L12 30L12 32L11 32L11 33L12 33L12 34L11 34L11 36L13 36L13 35L12 35L12 34L14 34L14 33L15 33L15 30L16 30L16 29L17 29L17 30L18 30L18 28L19 28L19 29L20 29L20 28L19 28L19 27L21 27L21 26L22 26L22 28L21 28L21 30L24 30L24 31L26 31L26 32L25 32L25 33L26 33L26 32L27 32L27 31L28 31L28 30L27 30L27 29L28 29L28 28L30 28L30 27L28 27L28 25L26 25L26 26L24 26L24 25L25 25L25 24L26 24L26 21L27 21L27 20L28 20L28 19L27 19L27 16L28 16L28 18L29 18L29 19L30 19L30 20L33 20L33 19L31 19L31 17L32 17L32 18L33 18L33 17L34 17L34 16L32 16L32 15L31 15L31 14L32 14L32 13L30 13L30 12L29 12L29 14L28 14L28 15L27 15L27 16L26 16L26 14L27 14L27 12L28 12L28 11L27 11L27 12L26 12L26 10L25 10L25 9L24 9L24 8L26 8L26 6L25 6L25 5ZM16 6L16 7L17 7L17 6ZM19 6L19 9L20 9L20 6ZM24 6L24 7L25 7L25 6ZM23 9L23 10L24 10L24 9ZM30 9L30 10L32 10L32 9ZM10 10L10 13L11 13L11 14L10 14L10 15L11 15L11 14L12 14L12 15L13 15L13 14L14 14L14 11L13 11L13 10ZM17 10L17 11L15 11L15 12L17 12L17 11L19 11L19 10ZM34 10L34 11L35 11L35 10ZM6 11L6 12L7 12L7 11ZM8 11L8 13L9 13L9 11ZM12 11L12 12L11 12L11 13L12 13L12 14L13 14L13 11ZM23 11L23 12L24 12L24 11ZM3 12L3 13L5 13L5 12ZM21 13L21 15L20 15L20 17L18 17L18 15L19 15L19 14L18 14L18 15L17 15L17 17L16 17L16 20L17 20L17 17L18 17L18 19L19 19L19 20L18 20L18 22L20 22L20 21L19 21L19 20L21 20L21 19L23 19L23 18L20 18L20 17L26 17L26 16L24 16L24 15L25 15L25 13L24 13L24 14L22 14L22 13ZM29 14L29 16L30 16L30 17L29 17L29 18L30 18L30 17L31 17L31 15L30 15L30 14ZM5 16L5 17L3 17L3 18L5 18L5 19L7 19L7 18L5 18L5 17L8 17L8 19L9 19L9 17L8 17L8 16ZM25 18L25 20L27 20L27 19L26 19L26 18ZM10 19L10 20L11 20L11 21L12 21L12 20L13 20L13 19ZM14 19L14 20L15 20L15 19ZM28 21L28 22L32 22L32 24L33 24L33 23L34 23L34 22L32 22L32 21ZM27 23L27 24L28 24L28 23ZM29 23L29 24L30 24L30 23ZM0 25L0 29L1 29L1 27L2 27L2 29L7 29L7 28L3 28L3 27L2 27L2 26L1 26L1 25ZM24 27L24 28L23 28L23 29L24 29L24 30L25 30L25 29L26 29L26 28L28 28L28 27L26 27L26 28L25 28L25 27ZM31 27L31 28L32 28L32 27ZM24 28L24 29L25 29L25 28ZM29 29L29 32L32 32L32 29ZM26 30L26 31L27 31L27 30ZM30 30L30 31L31 31L31 30ZM36 30L36 31L35 31L35 32L36 32L36 33L37 33L37 30ZM13 31L13 32L14 32L14 31ZM15 34L15 35L16 35L16 34ZM0 0L0 7L7 7L7 0ZM1 1L1 6L6 6L6 1ZM2 2L2 5L5 5L5 2ZM30 0L30 7L37 7L37 0ZM31 1L31 6L36 6L36 1ZM32 2L32 5L35 5L35 2ZM0 30L0 37L7 37L7 30ZM1 31L1 36L6 36L6 31ZM2 32L2 35L5 35L5 32Z" fill="#000000"/></g></g></svg>
