<?xml version="1.0" encoding="UTF-8"?>
<svg xmlns="http://www.w3.org/2000/svg" version="1.1" width="200" height="200" viewBox="0 0 200 200"><rect x="0" y="0" width="200" height="200" fill="#ffffff"/><g transform="scale(8)"><g transform="translate(0,0)"><path fill-rule="evenodd" d="M9 0L9 2L8 2L8 4L9 4L9 5L10 5L10 4L9 4L9 3L10 3L10 2L11 2L11 1L12 1L12 3L11 3L11 4L12 4L12 3L14 3L14 4L13 4L13 6L12 6L12 5L11 5L11 6L10 6L10 7L11 7L11 9L10 9L10 8L9 8L9 9L10 9L10 11L9 11L9 10L8 10L8 8L6 8L6 9L5 9L5 8L3 8L3 9L1 9L1 10L0 10L0 11L1 11L1 13L0 13L0 17L1 17L1 15L3 15L3 17L4 17L4 14L6 14L6 15L7 15L7 14L6 14L6 13L8 13L8 15L9 15L9 16L5 16L5 17L8 17L8 19L9 19L9 18L10 18L10 17L11 17L11 19L10 19L10 22L9 22L9 20L8 20L8 22L9 22L9 23L10 23L10 24L11 24L11 25L12 25L12 21L14 21L14 20L16 20L16 21L17 21L17 22L16 22L16 24L15 24L15 22L14 22L14 24L15 24L15 25L17 25L17 23L18 23L18 22L19 22L19 24L18 24L18 25L21 25L21 24L24 24L24 25L25 25L25 21L24 21L24 20L25 20L25 18L24 18L24 20L23 20L23 21L22 21L22 19L23 19L23 16L24 16L24 17L25 17L25 16L24 16L24 15L25 15L25 14L24 14L24 13L25 13L25 12L24 12L24 13L22 13L22 12L23 12L23 10L24 10L24 11L25 11L25 10L24 10L24 9L23 9L23 8L21 8L21 9L19 9L19 10L17 10L17 9L15 9L15 8L16 8L16 7L17 7L17 6L16 6L16 7L15 7L15 6L14 6L14 4L15 4L15 5L17 5L17 3L16 3L16 2L17 2L17 0L14 0L14 2L13 2L13 1L12 1L12 0ZM15 1L15 2L16 2L16 1ZM8 6L8 7L9 7L9 6ZM11 6L11 7L12 7L12 8L14 8L14 6L13 6L13 7L12 7L12 6ZM3 9L3 10L1 10L1 11L2 11L2 12L3 12L3 10L4 10L4 11L6 11L6 12L4 12L4 13L6 13L6 12L9 12L9 14L10 14L10 15L12 15L12 16L13 16L13 17L12 17L12 19L15 19L15 18L16 18L16 17L14 17L14 16L16 16L16 15L17 15L17 14L18 14L18 16L19 16L19 13L18 13L18 12L19 12L19 11L21 11L21 12L20 12L20 13L21 13L21 12L22 12L22 10L19 10L19 11L17 11L17 10L16 10L16 11L17 11L17 12L15 12L15 11L14 11L14 9L12 9L12 10L11 10L11 12L12 12L12 11L13 11L13 13L14 13L14 14L13 14L13 15L12 15L12 13L10 13L10 12L9 12L9 11L6 11L6 10L7 10L7 9L6 9L6 10L5 10L5 9ZM14 12L14 13L15 13L15 12ZM1 13L1 14L3 14L3 13ZM14 14L14 15L13 15L13 16L14 16L14 15L16 15L16 14ZM20 14L20 15L21 15L21 14ZM22 14L22 15L23 15L23 14ZM21 16L21 17L22 17L22 16ZM13 17L13 18L14 18L14 17ZM17 17L17 20L20 20L20 17ZM18 18L18 19L19 19L19 18ZM11 20L11 21L12 21L12 20ZM20 21L20 22L21 22L21 23L23 23L23 22L24 22L24 21L23 21L23 22L21 22L21 21ZM10 22L10 23L11 23L11 22ZM0 0L0 7L7 7L7 0ZM1 1L1 6L6 6L6 1ZM2 2L2 5L5 5L5 2ZM18 0L18 7L25 7L25 0ZM19 1L19 6L24 6L24 1ZM20 2L20 5L23 5L23 2ZM0 18L0 25L7 25L7 18ZM1 19L1 24L6 24L6 19ZM2 20L2 23L5 23L5 20Z" fill="#000000"/></g></g></svg>
